<?xml version="1.0" standalone="no"?>
<!DOCTYPE svg PUBLIC "-//W3C//DTD SVG 20010904//EN"
 "http://www.w3.org/TR/2001/REC-SVG-20010904/DTD/svg10.dtd">
<svg version="1.0" xmlns="http://www.w3.org/2000/svg"
 width="512.000000pt" height="512.000000pt" viewBox="0 0 512.000000 512.000000"
 preserveAspectRatio="xMidYMid meet">

<g transform="translate(0.000000,512.000000) scale(0.100000,-0.100000)"
fill="#000000" stroke="none">
<path d="M348 4732 c-130 -130 -208 -215 -208 -227 0 -13 145 -165 403 -423
393 -393 422 -422 441 -422 5 0 53 43 107 96 l97 96 666 -666 c366 -366 666
-669 666 -673 0 -4 -120 -128 -267 -275 -248 -248 -266 -269 -256 -290 6 -13
113 -165 239 -338 523 -722 614 -848 806 -1115 206 -285 246 -335 270 -335 14
0 1602 1582 1619 1613 8 13 6 25 -4 41 -8 12 -133 108 -278 212 -145 105 -379
274 -519 376 -140 101 -412 298 -604 437 -192 139 -360 258 -373 264 -23 10
-41 -6 -289 -254 l-264 -264 -670 670 -669 669 79 82 c44 45 80 90 80 100 0
11 -166 184 -407 426 -319 319 -413 408 -433 408 -19 0 -73 -49 -232 -208z
m595 -270 l357 -357 -160 -160 -160 -160 -359 359 -359 359 157 157 c86 87
158 158 161 159 3 1 166 -160 363 -357z m2719 -1845 c282 -205 656 -476 831
-602 l318 -229 -747 -747 c-738 -738 -748 -747 -764 -726 -9 12 -137 189 -285
392 -147 204 -381 525 -518 715 -138 190 -281 388 -319 440 l-68 94 517 518
c285 285 519 518 520 518 1 0 233 -168 515 -373z"/>
<path d="M3085 2700 c-14 -16 -17 -26 -9 -45 11 -28 1288 -1005 1314 -1005 21
0 50 31 50 53 0 9 -12 28 -27 41 -76 68 -1280 976 -1294 976 -9 0 -24 -9 -34
-20z"/>
<path d="M2792 2318 c-37 -37 -27 -47 511 -584 287 -287 532 -525 544 -529 25
-7 63 24 63 52 0 10 -237 255 -527 545 -544 545 -554 553 -591 516z"/>
<path d="M2387 2002 c-32 -35 -91 49 557 -802 268 -352 416 -538 433 -545 21
-8 28 -6 44 14 10 13 19 28 19 35 0 6 -86 124 -190 261 -105 138 -252 331
-327 430 -514 677 -473 625 -503 625 -9 0 -24 -8 -33 -18z"/>
</g>
</svg>
